<!-- Based on: https://tabler.io/icons - "device-gamepad-2" -->
<svg 
	xmlns="http://www.w3.org/2000/svg"
	class="icon icon-tabler icon-tabler-device-gamepad-2"
	width="24"
	height="24"
	viewBox="0 0 24 24"
	stroke-width="2"
	stroke="#66d9e8"
	fill="none"
	stroke-linecap="round"
	stroke-linejoin="round"
>
	<rect width="24" height="24" rx="5" stroke-width="0" fill="#15aabf26"></rect>
	<path stroke="none" d="M0 0h24v24H0z" fill="none"/>
	<path d="M12 5h3.5a5 5 0 0 1 0 10h-5.5l-4.015 4.227a2.3 2.3 0 0 1 -3.923 -2.035l1.634 -8.173a5 5 0 0 1 4.904 -4.019h3.4z" />
	<path d="M14 15l4.07 4.284a2.3 2.3 0 0 0 3.925 -2.023l-1.6 -8.232" />
	<path d="M8 9v2" />
	<path d="M7 10h2" />
	<path d="M14 10h2" />
</svg>
